<svg id="Layer_1" data-name="Layer 1" xmlns="http://www.w3.org/2000/svg" viewBox="0 0 73.9 155.93"><defs><style>.cls-1{fill:#009345;}.cls-1,.cls-4{stroke:#231f20;stroke-miterlimit:10;stroke-width:0.5px;}.cls-2,.cls-3,.cls-6{fill:#fff;}.cls-2{fill-rule:evenodd;}.cls-3{stroke:#000;stroke-miterlimit:6;stroke-width:0.25px;}.cls-4{fill:#ec1c24;}.cls-5{fill:#231f20;}.cls-6,.cls-7{font-size:12px;font-family:MyriadPro-Regular, Myriad Pro;}</style></defs><title>2017</title><g id="recycling_bin_1" data-name="recycling bin 1"><path id="BIN" class="cls-1" d="M61.17,71.65l64.5.92v4.08h3.9v8.16H120.3l-1.85,57.46s-30.4,20-52.09-1.67L66,83.7l-9.83.18V74.06l5-.19Z" transform="translate(-55.91 -23.9)"/><path id="BIN_LID" data-name="BIN LID" class="cls-1" d="M62.1,65.53l58.38.74V56.45S82.3,54.22,62.1,65.53Z" transform="translate(-55.91 -23.9)"/></g><g id="recycle_logo" data-name="recycle logo"><path class="cls-2" d="M112.65,122a5.84,5.84,0,0,1-.44.4,4.11,4.11,0,0,1-2.9,1.08l-3.5,0,3.5,0a4.11,4.11,0,0,0,2.9-1.08,5.84,5.84,0,0,0,.44-.4l-6,9.47a2.72,2.72,0,0,1-.67.7,3.05,3.05,0,0,1-2,.69l-5-.07-.07,3.91L94,128.13l5-9.2-.11,4.49,7,0L100.37,114l8.73-5,4.43,7.74a4.79,4.79,0,0,1,.36,1.13,4.39,4.39,0,0,1-.73,3.46,3,3,0,0,1-.47.66ZM84.58,97.75a4.4,4.4,0,0,1,3.34-1.16l.78.13,11.3.12,1,.22a3,3,0,0,1,1.59,1.32l2.56,4.35,3.38-2-4.79,8.67-10.45.51,3.9-2.22-3.52-6L88.3,111.3l-8.83-4.86,4.33-7.8A5.53,5.53,0,0,1,84.58,97.75Zm-4,25.37H91.48V133.2H83a4.12,4.12,0,0,1-1.65-.28,4.37,4.37,0,0,1-2.61-2.34,4.22,4.22,0,0,1-.32-.74,5.44,5.44,0,0,1-.16-.64,4.07,4.07,0,0,1,.51-3l1.78-3.06-1.78,3.06a4.07,4.07,0,0,0-.51,3,5.44,5.44,0,0,0,.16.64l-5.3-10a2.84,2.84,0,0,1-.27-.93,3,3,0,0,1,.39-2l2.57-4.33-3.37-2H82.4l5.5,8.89-3.84-2.33Zm8.11-26.4.65.11a4.18,4.18,0,0,1,2.38,1.94l1.89,3-1.89-3a4.18,4.18,0,0,0-2.38-1.94Z" transform="translate(-55.91 -23.9)"/><path class="cls-3" d="M105.81,123.47,100.37,114l8.73-5,4.43,7.74a4.79,4.79,0,0,1,.36,1.13,4.39,4.39,0,0,1-.73,3.46,3,3,0,0,1-.47.66l0,.06-6,9.47a2.72,2.72,0,0,1-.67.7,3.05,3.05,0,0,1-2,.69l-5-.07-.07,3.91L94,128.13l5-9.2-.11,4.49Zm6.84-1.45a5.84,5.84,0,0,1-.44.4,4.11,4.11,0,0,1-2.9,1.08l-3.5,0M84.58,97.75a4.4,4.4,0,0,1,3.34-1.16l.78.13,11.3.12,1,.22a3,3,0,0,1,1.59,1.32l2.56,4.35,3.38-2-4.79,8.67-10.45.51,3.9-2.22-3.52-6L88.3,111.3l-8.83-4.86,4.33-7.8A5.53,5.53,0,0,1,84.58,97.75Zm-4,25.37,3.47-6,3.84,2.33-5.5-8.89H72.48l3.37,2-2.57,4.33a3,3,0,0,0-.39,2,2.84,2.84,0,0,0,.27.93l5.3,10a5.44,5.44,0,0,1-.16-.64,4.07,4.07,0,0,1,.51-3l1.78-3.06H91.48V133.2H83a4.12,4.12,0,0,1-1.65-.28,4.37,4.37,0,0,1-2.61-2.34,4.22,4.22,0,0,1-.32-.74M88.7,96.72l.65.11a4.18,4.18,0,0,1,2.38,1.94l1.89,3" transform="translate(-55.91 -23.9)"/></g><polygon id="_1" data-name="% 1" class="cls-4" points="38.03 133.78 32.89 139.09 14.81 139.09 14.14 155.68 61.26 155.68 61.26 139.25 44.18 139.59 38.03 133.78"/><rect id="year_2015" data-name="year 2015" class="cls-5" x="4.2" width="67.73" height="23.89"/><text class="cls-6" transform="translate(22.67 16.16)">2017</text><text class="cls-7" transform="translate(25.73 151.93)">56%</text></svg>