<svg id="INFOGRAPHIC_POSTER" data-name="INFOGRAPHIC POSTER" xmlns="http://www.w3.org/2000/svg" viewBox="0 0 662.27 897.18"><defs><style>.cls-1,.cls-12,.cls-15,.cls-7,.cls-8{fill:#fff;}.cls-2,.cls-3{fill:#00a651;}.cls-19,.cls-2,.cls-21,.cls-7{fill-rule:evenodd;}.cls-20,.cls-22,.cls-3,.cls-8{stroke:#010101;stroke-miterlimit:6;stroke-width:0.25px;}.cls-13,.cls-4{font-size:21px;}.cls-10,.cls-11,.cls-13,.cls-4,.cls-5{fill:#231f20;}.cls-4{font-family:ShreeDev0714, "Shree Devanagari 714";}.cls-15,.cls-5{font-size:18px;}.cls-10,.cls-12,.cls-13,.cls-15,.cls-5{font-family:Sathu;}.cls-6{fill:#009444;}.cls-6,.cls-9{stroke:#231f20;stroke-miterlimit:10;stroke-width:0.5px;}.cls-9{fill:#ed1c24;}.cls-10,.cls-12{font-size:14px;}.cls-14{fill:#00a79d;}.cls-16{fill:#f15a29;}.cls-17,.cls-21,.cls-22{fill:#fff200;}.cls-18{fill:#1b75bc;}.cls-19,.cls-20{fill:#00aeef;}</style></defs><title>infographic poster</title><g id="recycle_logo" data-name="recycle logo"><rect class="cls-1" width="662.27" height="897.18"/><path class="cls-2" d="M333.36,94.31c-.34.35-.73.69-1.14,1a10.49,10.49,0,0,1-7.43,2.76l-9-.07,9,.07a10.49,10.49,0,0,0,7.43-2.76c.41-.35.8-.69,1.14-1L318,118.64a7.79,7.79,0,0,1-1.73,1.8,7.91,7.91,0,0,1-5.05,1.76L298.32,122l-.18,10L285.46,110l12.75-23.6-.27,11.51,17.87.13-14-24.29,22.4-12.93L335.61,80.7a11.81,11.81,0,0,1,.93,2.9,11.27,11.27,0,0,1-1.87,8.88,9.46,9.46,0,0,1-1.2,1.69A.6.6,0,0,0,333.36,94.31ZM261.3,32a11.29,11.29,0,0,1,8.57-3l2,.34,29,.32,2.46.55a7.65,7.65,0,0,1,4.08,3.39L314,44.79l8.68-5L310.34,62l-26.82,1.31,10-5.7-9.06-15.38L270.84,66.8,248.17,54.33l11.13-20A13.51,13.51,0,0,1,261.3,32ZM251,97.15h28L279,123h-21.7a10.89,10.89,0,0,1-4.22-.72,11.22,11.22,0,0,1-6.7-6,9.53,9.53,0,0,1-.83-1.9q-.24-.77-.42-1.62a10.63,10.63,0,0,1,1.32-7.78L251,97.15,246.48,105a10.63,10.63,0,0,0-1.32,7.78q.18.86.42,1.62L232,88.78a8,8,0,0,1-.69-2.38,7.75,7.75,0,0,1,1-5.22l6.6-11.13-8.64-5.15h25.48l14.1,22.81-9.85-6Zm20.84-67.78,1.66.28a10.75,10.75,0,0,1,6.12,5l4.83,7.6-4.83-7.6a10.75,10.75,0,0,0-6.12-5Z" transform="translate(36.06 29.85)"/><path class="cls-3" d="M315.8,98l-14-24.29,22.4-12.93L335.61,80.7a12.25,12.25,0,0,1,.93,2.9,11.26,11.26,0,0,1-1.87,8.88,9.06,9.06,0,0,1-1.21,1.69.94.94,0,0,0-.1.14L318,118.64a7.79,7.79,0,0,1-1.73,1.8,7.89,7.89,0,0,1-5.05,1.76L298.32,122l-.17,10L285.46,110l12.75-23.6-.27,11.51Zm17.56-3.73c-.34.35-.73.69-1.14,1a10.49,10.49,0,0,1-7.43,2.76l-9-.07M261.3,32a11.29,11.29,0,0,1,8.57-3l2,.34,29,.32,2.46.55a7.65,7.65,0,0,1,4.08,3.39L314,44.79l8.68-5L310.34,62l-26.82,1.31,10-5.7-9.06-15.38L270.84,66.8,248.17,54.33l11.13-20A13.51,13.51,0,0,1,261.3,32ZM251,97.15,260,81.73l9.85,6L255.71,64.9H230.23l8.64,5.15-6.6,11.13a7.7,7.7,0,0,0-1,5.22,8,8,0,0,0,.69,2.38l13.62,25.61q-.24-.77-.42-1.62a10.63,10.63,0,0,1,1.32-7.78L251,97.15h28L279,123h-21.7a10.89,10.89,0,0,1-4.22-.72,11.22,11.22,0,0,1-6.7-6,9.53,9.53,0,0,1-.83-1.9m26.3-85,1.66.28a10.75,10.75,0,0,1,6.12,5l4.83,7.6" transform="translate(36.06 29.85)"/></g><text class="cls-4" transform="translate(119.06 195.85)">Recycle your PRESENT to SAVE your FUTURE</text><text class="cls-5" transform="translate(205.18 233.84)">RECYCLING IN LAST FEW YEARS</text><g id="recycling_bin_1" data-name="recycling bin 1"><path id="BIN" class="cls-6" d="M65.17,288.65l64.5.92v4.08h3.9v8.16H124.3l-1.85,57.46s-30.4,20-52.09-1.67L70,300.7l-9.83.18v-9.82l5-.19Z" transform="translate(36.06 29.85)"/><path id="BIN_LID" data-name="BIN LID" class="cls-6" d="M66.1,282.53l58.38.74v-9.82S86.3,271.22,66.1,282.53Z" transform="translate(36.06 29.85)"/></g><g id="recycling_bin_2" data-name="recycling bin 2"><path id="BIN-2" data-name="BIN" class="cls-6" d="M259.76,288.65l64.51.92v4.08h3.89v8.16h-9.27L317,359.27s-30.4,20-52.09-1.67l-.37-56.9-9.82.18v-9.82l5-.19Z" transform="translate(36.06 29.85)"/><path id="BIN_LID-2" data-name="BIN LID" class="cls-6" d="M260.69,282.53l58.39.74v-9.82S280.9,271.22,260.69,282.53Z" transform="translate(36.06 29.85)"/></g><g id="recycling_bin_3" data-name="recycling bin 3"><path id="BIN-3" data-name="BIN" class="cls-6" d="M161.84,288.65l64.5.92v4.08h3.89v8.16H221l-1.86,57.46s-30.4,20-52.08-1.67l-.37-56.9-9.83.18v-9.82l5-.19Z" transform="translate(36.06 29.85)"/><path id="BIN_LID-3" data-name="BIN LID" class="cls-6" d="M162.76,282.53l58.39.74v-9.82S183,271.22,162.76,282.53Z" transform="translate(36.06 29.85)"/></g><g id="recycling_bin_4" data-name="recycling bin 4"><path id="BIN-4" data-name="BIN" class="cls-6" d="M362.81,288.65l64.5.92v4.08h3.9v8.16h-9.27l-1.86,57.46s-30.4,20-52.08-1.67l-.37-56.9-9.83.18v-9.82l5-.19Z" transform="translate(36.06 29.85)"/><path id="BIN_LID-4" data-name="BIN LID" class="cls-6" d="M363.73,282.53l58.39.74v-9.82S383.94,271.22,363.73,282.53Z" transform="translate(36.06 29.85)"/></g><g id="recycling_bin_5" data-name="recycling bin 5"><path id="BIN-5" data-name="BIN" class="cls-6" d="M462.17,289.07l64.51.93v4.08h3.89v8.15h-9.26l-1.86,57.47s-30.4,20-52.09-1.67L467,301.12l-9.82.19v-9.83l5-.18Z" transform="translate(36.06 29.85)"/><path id="BIN_LID-5" data-name="BIN LID" class="cls-6" d="M463.1,283l58.39.75v-9.83S483.31,271.65,463.1,283Z" transform="translate(36.06 29.85)"/></g><g id="recycle_logo-2" data-name="recycle logo"><path class="cls-7" d="M116.65,339a5.84,5.84,0,0,1-.44.4,4.11,4.11,0,0,1-2.9,1.08l-3.5,0,3.5,0a4.11,4.11,0,0,0,2.9-1.08,5.84,5.84,0,0,0,.44-.4l-6,9.47a2.72,2.72,0,0,1-.67.7,3.05,3.05,0,0,1-2,.69l-5-.07-.07,3.91L98,345.13l5-9.2-.11,4.49,7,.05L104.37,331l8.73-5,4.43,7.74a4.79,4.79,0,0,1,.36,1.13,4.39,4.39,0,0,1-.73,3.46,3,3,0,0,1-.47.66ZM88.58,314.75a4.4,4.4,0,0,1,3.34-1.16l.78.13,11.3.12,1,.22a3,3,0,0,1,1.59,1.32l2.56,4.35,3.38-2-4.79,8.67-10.45.51,3.9-2.22-3.52-6L92.3,328.3l-8.83-4.86,4.33-7.8A5.53,5.53,0,0,1,88.58,314.75Zm-4,25.37H95.48V350.2H87a4.12,4.12,0,0,1-1.65-.28,4.37,4.37,0,0,1-2.61-2.34,4.22,4.22,0,0,1-.32-.74,5.44,5.44,0,0,1-.16-.64,4.07,4.07,0,0,1,.51-3l1.78-3.06-1.78,3.06a4.07,4.07,0,0,0-.51,3,5.44,5.44,0,0,0,.16.64l-5.3-10a2.84,2.84,0,0,1-.27-.93,3,3,0,0,1,.39-2l2.57-4.33-3.37-2H86.4l5.5,8.89-3.84-2.33Zm8.11-26.4.65.11a4.18,4.18,0,0,1,2.38,1.94l1.89,3-1.89-3a4.18,4.18,0,0,0-2.38-1.94Z" transform="translate(36.06 29.85)"/><path class="cls-8" d="M109.81,340.47,104.37,331l8.73-5,4.43,7.74a4.79,4.79,0,0,1,.36,1.13,4.39,4.39,0,0,1-.73,3.46,3,3,0,0,1-.47.66l0,.06-6,9.47a2.72,2.72,0,0,1-.67.7,3.05,3.05,0,0,1-2,.69l-5-.07-.07,3.91L98,345.13l5-9.2-.11,4.49Zm6.84-1.45a5.84,5.84,0,0,1-.44.4,4.11,4.11,0,0,1-2.9,1.08l-3.5,0M88.58,314.75a4.4,4.4,0,0,1,3.34-1.16l.78.13,11.3.12,1,.22a3,3,0,0,1,1.59,1.32l2.56,4.35,3.38-2-4.79,8.67-10.45.51,3.9-2.22-3.52-6L92.3,328.3l-8.83-4.86,4.33-7.8A5.53,5.53,0,0,1,88.58,314.75Zm-4,25.37,3.47-6,3.84,2.33-5.5-8.89H76.48l3.37,2-2.57,4.33a3,3,0,0,0-.39,2,2.84,2.84,0,0,0,.27.93l5.3,10a5.44,5.44,0,0,1-.16-.64,4.07,4.07,0,0,1,.51-3l1.78-3.06H95.48V350.2H87a4.12,4.12,0,0,1-1.65-.28,4.37,4.37,0,0,1-2.61-2.34,4.22,4.22,0,0,1-.32-.74M92.7,313.72l.65.11a4.18,4.18,0,0,1,2.38,1.94l1.89,3" transform="translate(36.06 29.85)"/></g><g id="recycle_logo-3" data-name="recycle logo"><path class="cls-7" d="M511.71,336.91a5.84,5.84,0,0,1-.44.4,4,4,0,0,1-2.89,1.08l-3.5,0,3.5,0a4,4,0,0,0,2.89-1.08,5.84,5.84,0,0,0,.44-.4l-6,9.47a2.9,2.9,0,0,1-.67.7,3.08,3.08,0,0,1-2,.69l-5-.07-.07,3.91L493.06,343l5-9.19-.11,4.48,7,.05-5.44-9.46,8.72-5,4.43,7.74a4.79,4.79,0,0,1,.36,1.13,4.38,4.38,0,0,1-.72,3.46,3.84,3.84,0,0,1-.47.66Zm-28.06-24.27a4.41,4.41,0,0,1,3.34-1.16l.78.13,11.29.13,1,.21a3,3,0,0,1,1.59,1.32l2.55,4.35,3.38-2-4.79,8.67-10.45.51,3.91-2.22-3.53-6-5.32,9.57-8.83-4.86,4.34-7.8A4.7,4.7,0,0,1,483.65,312.64Zm-4,25.37h10.89v10.08H482.1a4.07,4.07,0,0,1-1.64-.28,4.34,4.34,0,0,1-2.61-2.34,3.6,3.6,0,0,1-.33-.74c-.06-.2-.11-.41-.16-.63a4.18,4.18,0,0,1,.51-3l1.78-3.06-1.78,3.06a4.18,4.18,0,0,0-.51,3c.05.22.1.43.16.63l-5.3-10a3.46,3.46,0,0,1-.27-.92,3,3,0,0,1,.39-2l2.57-4.33-3.36-2h9.92l5.49,8.89L483.12,332Zm8.12-26.4.64.11a4.2,4.2,0,0,1,2.39,1.94l1.88,3-1.88-3a4.2,4.2,0,0,0-2.39-1.94Z" transform="translate(36.06 29.85)"/><path class="cls-8" d="M504.88,338.36l-5.44-9.46,8.72-5,4.43,7.74a4.72,4.72,0,0,1,.36,1.14,4.37,4.37,0,0,1-.72,3.45,3.84,3.84,0,0,1-.47.66s0,0,0,.06l-6,9.47a2.9,2.9,0,0,1-.67.7,3.08,3.08,0,0,1-2,.69l-5-.07-.07,3.91L493.06,343l5-9.19-.11,4.48Zm6.83-1.45a5.84,5.84,0,0,1-.44.4,4,4,0,0,1-2.89,1.08l-3.5,0m-21.23-25.72a4.41,4.41,0,0,1,3.34-1.16l.78.13,11.29.13,1,.21a3,3,0,0,1,1.59,1.32l2.55,4.35,3.38-2-4.79,8.67-10.45.51,3.91-2.22-3.53-6-5.32,9.57-8.83-4.86,4.34-7.8A4.7,4.7,0,0,1,483.65,312.64Zm-4,25.37,3.47-6,3.84,2.33-5.49-8.89h-9.92l3.36,2-2.57,4.33a3,3,0,0,0-.39,2,3.46,3.46,0,0,0,.27.92l5.3,10c-.06-.2-.11-.41-.16-.63a4.18,4.18,0,0,1,.51-3l1.78-3.06h10.89v10.08H482.1a4.07,4.07,0,0,1-1.64-.28,4.34,4.34,0,0,1-2.61-2.34,3.6,3.6,0,0,1-.33-.74m10.25-33.12.64.11a4.2,4.2,0,0,1,2.39,1.94l1.88,3" transform="translate(36.06 29.85)"/></g><g id="recycle_logo-4" data-name="recycle logo"><path class="cls-7" d="M413.92,338.25a5.89,5.89,0,0,1-.44.41,4.09,4.09,0,0,1-2.9,1.07l-3.5,0,3.5,0a4.09,4.09,0,0,0,2.9-1.07,5.89,5.89,0,0,0,.44-.41l-6,9.48a3.16,3.16,0,0,1-.68.7,3,3,0,0,1-2,.69l-5-.07-.06,3.9-4.94-8.59,5-9.19-.1,4.48,7,.06-5.44-9.47,8.72-5L414.8,333a4.64,4.64,0,0,1,.36,1.13,4.39,4.39,0,0,1-.73,3.46,3,3,0,0,1-.47.66ZM385.86,314a4.4,4.4,0,0,1,3.34-1.15l.78.13,11.29.12,1,.22a3,3,0,0,1,1.58,1.32l2.56,4.34,3.38-2L405,325.67l-10.45.51,3.91-2.22-3.53-6-5.32,9.57-8.83-4.86,4.34-7.81A5,5,0,0,1,385.86,314Zm-4,25.38h10.89v10.08h-8.45a4.25,4.25,0,0,1-1.64-.28,4.36,4.36,0,0,1-2.61-2.35,3.37,3.37,0,0,1-.33-.74c-.06-.19-.11-.4-.16-.63a4.2,4.2,0,0,1,.51-3l1.78-3.05-1.78,3.05a4.2,4.2,0,0,0-.51,3c.05.23.1.44.16.63l-5.3-10a2.84,2.84,0,0,1-.27-.93,3,3,0,0,1,.39-2l2.57-4.34-3.36-2h9.92l5.49,8.88-3.84-2.33ZM390,313l.64.11A4.11,4.11,0,0,1,393,315l1.89,3L393,315a4.11,4.11,0,0,0-2.38-1.94Z" transform="translate(36.06 29.85)"/><path class="cls-8" d="M407.08,339.71l-5.43-9.47,8.72-5L414.8,333a4.79,4.79,0,0,1,.36,1.13,4.39,4.39,0,0,1-.73,3.46,3,3,0,0,1-.47.66l0,.05-6,9.48a3.16,3.16,0,0,1-.68.7,3,3,0,0,1-2,.69l-5-.07-.06,3.9-4.94-8.59,5-9.19-.1,4.48Zm6.84-1.46a5.89,5.89,0,0,1-.44.41,4.09,4.09,0,0,1-2.9,1.07l-3.5,0M385.86,314a4.4,4.4,0,0,1,3.34-1.15l.78.13,11.29.12,1,.22a3,3,0,0,1,1.58,1.32l2.56,4.34,3.38-2L405,325.67l-10.45.51,3.91-2.22-3.53-6-5.32,9.57-8.83-4.86,4.34-7.81A5,5,0,0,1,385.86,314Zm-4,25.38,3.47-6,3.84,2.33-5.49-8.88h-9.92l3.36,2-2.57,4.34a3,3,0,0,0-.39,2,2.84,2.84,0,0,0,.27.93l5.3,10c-.06-.19-.11-.4-.16-.63a4.2,4.2,0,0,1,.51-3l1.78-3.05h10.89v10.08h-8.45a4.25,4.25,0,0,1-1.64-.28,4.36,4.36,0,0,1-2.61-2.35,3.37,3.37,0,0,1-.33-.74M390,313l.64.11A4.11,4.11,0,0,1,393,315l1.89,3" transform="translate(36.06 29.85)"/></g><g id="recycle_logo-5" data-name="recycle logo"><path class="cls-7" d="M310.88,336.16a5.89,5.89,0,0,1-.44.41,4.1,4.1,0,0,1-2.9,1.07l-3.5,0,3.5,0a4.1,4.1,0,0,0,2.9-1.07,5.89,5.89,0,0,0,.44-.41l-6,9.48a3.26,3.26,0,0,1-2.64,1.38l-5-.06-.07,3.9-4.94-8.59,5-9.19-.11,4.48,7,.06-5.44-9.47,8.73-5,4.43,7.74a4.64,4.64,0,0,1,.36,1.13,4.39,4.39,0,0,1-.73,3.46,4.08,4.08,0,0,1-.47.66Zm-28.07-24.27a4.43,4.43,0,0,1,3.34-1.16l.78.14,11.3.12.95.22a2.93,2.93,0,0,1,1.59,1.31l2.56,4.35,3.38-2-4.8,8.67-10.44.51,3.9-2.22-3.52-6-5.32,9.57-8.83-4.86,4.33-7.81A6,6,0,0,1,282.81,311.89Zm-4,25.38h10.89v10.08h-8.45a4.3,4.3,0,0,1-1.65-.29,4.37,4.37,0,0,1-2.61-2.34,3.92,3.92,0,0,1-.32-.74,5.26,5.26,0,0,1-.16-.63,4.1,4.1,0,0,1,.51-3l1.78-3.05L277,340.32a4.1,4.1,0,0,0-.51,3,5.26,5.26,0,0,0,.16.63l-5.3-10a2.84,2.84,0,0,1-.27-.93,3,3,0,0,1,.39-2l2.57-4.34-3.37-2h9.92l5.5,8.88-3.84-2.33Zm8.11-26.4.65.11a4.16,4.16,0,0,1,2.38,1.93l1.89,3-1.89-3a4.16,4.16,0,0,0-2.38-1.93Z" transform="translate(36.06 29.85)"/><path class="cls-8" d="M304,337.62l-5.44-9.47,8.73-5,4.42,7.74a4.28,4.28,0,0,1,.37,1.13,4.39,4.39,0,0,1-.73,3.46,4.08,4.08,0,0,1-.47.66l0,.05-6,9.48a3.26,3.26,0,0,1-2.63,1.38l-5-.06-.07,3.9-4.94-8.59,5-9.19-.11,4.48Zm6.84-1.46a5.89,5.89,0,0,1-.44.41,4.1,4.1,0,0,1-2.9,1.07l-3.5,0m-21.23-25.73a4.43,4.43,0,0,1,3.34-1.16l.78.14,11.3.12.95.22a2.93,2.93,0,0,1,1.59,1.31l2.56,4.35,3.38-2-4.8,8.67-10.44.51,3.9-2.22-3.52-6-5.32,9.57-8.83-4.86,4.33-7.81A6,6,0,0,1,282.81,311.89Zm-4,25.38,3.47-6,3.84,2.33-5.5-8.88h-9.92l3.37,2-2.57,4.34a3,3,0,0,0-.39,2,2.84,2.84,0,0,0,.27.93l5.3,10a5.26,5.26,0,0,1-.16-.63,4.1,4.1,0,0,1,.51-3l1.78-3.05h10.89v10.08h-8.45a4.3,4.3,0,0,1-1.65-.29,4.37,4.37,0,0,1-2.61-2.34,3.92,3.92,0,0,1-.32-.74m10.24-33.11.65.11a4.16,4.16,0,0,1,2.38,1.93l1.89,3" transform="translate(36.06 29.85)"/></g><g id="recycle_logo-6" data-name="recycle logo"><path class="cls-7" d="M213.38,337.25c-.14.14-.29.27-.45.41a4.08,4.08,0,0,1-2.89,1.07l-3.5,0,3.5,0a4.08,4.08,0,0,0,2.89-1.07c.16-.14.31-.27.45-.41l-6,9.48a3.1,3.1,0,0,1-.67.7,3.06,3.06,0,0,1-2,.69l-5-.07-.07,3.9-4.94-8.59,5-9.19-.11,4.48,7,.06-5.44-9.47,8.72-5,4.43,7.74a4.64,4.64,0,0,1,.36,1.13,4.38,4.38,0,0,1-.72,3.46,3.84,3.84,0,0,1-.47.66ZM185.31,313a4.4,4.4,0,0,1,3.34-1.15l.78.13,11.29.12,1,.22a3,3,0,0,1,1.59,1.32l2.55,4.34,3.38-2-4.79,8.67-10.44.51,3.9-2.22-3.53-6L189,326.54l-8.83-4.86,4.34-7.81A5,5,0,0,1,185.31,313Zm-4,25.38H192.2l0,10.08h-8.46a4.25,4.25,0,0,1-1.64-.28,4.42,4.42,0,0,1-2.61-2.35,3.36,3.36,0,0,1-.32-.74,4.77,4.77,0,0,1-.17-.63,4.16,4.16,0,0,1,.52-3l1.77-3.05-1.77,3.05a4.16,4.16,0,0,0-.52,3,4.77,4.77,0,0,0,.17.63l-5.31-10a3.43,3.43,0,0,1-.27-.93,3,3,0,0,1,.39-2l2.57-4.34-3.36-2h9.92l5.49,8.88-3.83-2.33Zm8.12-26.4.65.11a4.14,4.14,0,0,1,2.38,1.94l1.88,3-1.88-3a4.14,4.14,0,0,0-2.38-1.94Z" transform="translate(36.06 29.85)"/><path class="cls-8" d="M206.54,338.71l-5.44-9.47,8.72-5,4.43,7.74a4.79,4.79,0,0,1,.36,1.13,4.38,4.38,0,0,1-.72,3.46,3.84,3.84,0,0,1-.47.66l0,.05-6,9.48a3.1,3.1,0,0,1-.67.7,3.06,3.06,0,0,1-2,.69l-5-.07-.07,3.9-4.94-8.59,5-9.19-.11,4.48Zm6.84-1.46c-.14.14-.29.27-.45.41a4.08,4.08,0,0,1-2.89,1.07l-3.5,0M185.31,313a4.4,4.4,0,0,1,3.34-1.15l.78.13,11.29.12,1,.22a3,3,0,0,1,1.59,1.32l2.55,4.34,3.38-2-4.79,8.67-10.44.51,3.9-2.22-3.53-6L189,326.54l-8.83-4.86,4.34-7.81A5,5,0,0,1,185.31,313Zm-4,25.38,3.48-6,3.83,2.33-5.49-8.88h-9.92l3.36,2L174,332.14a3,3,0,0,0-.39,2,3.43,3.43,0,0,0,.27.93l5.31,10a4.77,4.77,0,0,1-.17-.63,4.16,4.16,0,0,1,.52-3l1.77-3.05H192.2l0,10.08h-8.46a4.25,4.25,0,0,1-1.64-.28,4.42,4.42,0,0,1-2.61-2.35,3.36,3.36,0,0,1-.32-.74M189.43,312l.65.11a4.14,4.14,0,0,1,2.38,1.94l1.88,3" transform="translate(36.06 29.85)"/></g><polygon id="_1" data-name="% 1" class="cls-9" points="134.01 404.52 128.86 409.83 110.78 409.83 110.12 426.42 157.23 426.42 157.23 410 140.15 410.33 134.01 404.52"/><text class="cls-10" transform="translate(119.06 424.04)">60%</text><polygon id="_2" data-name="% 2" class="cls-9" points="327.85 404.52 322.71 409.83 304.62 409.83 303.96 426.42 351.08 426.42 351.08 410 333.99 410.33 327.85 404.52"/><polygon id="_3" data-name="% 3" class="cls-9" points="230.6 404.52 225.46 409.83 207.37 409.83 206.71 426.42 253.82 426.42 253.82 410 236.74 410.33 230.6 404.52"/><text class="cls-10" transform="translate(313.76 424.04)">56%</text><polygon id="_4" data-name="% 4" class="cls-9" points="530.26 404.52 525.12 409.83 507.04 409.83 506.37 426.42 553.49 426.42 553.49 410 536.4 410.33 530.26 404.52"/><polygon id="_5" data-name="% 5" class="cls-9" points="430.89 404.52 425.75 409.83 407.67 409.83 407 426.42 454.12 426.42 454.12 410 437.04 410.33 430.89 404.52"/><text class="cls-10" transform="translate(514.59 424.04)">62%</text><text class="cls-10" transform="translate(213.68 424.04)">43%</text><text class="cls-10" transform="translate(414.08 424.04)">54%</text><rect id="year_2015" data-name="year 2015" class="cls-11" x="100.17" y="270.75" width="67.73" height="23.89"/><rect id="year_2016" data-name="year 2016" class="cls-11" x="202.18" y="270.75" width="67.73" height="23.89"/><rect id="year_2017" data-name="year 2017" class="cls-11" x="294.42" y="269.99" width="67.73" height="23.89"/><rect id="year_2018" data-name="year 2018" class="cls-11" x="396.7" y="269.99" width="67.73" height="23.89"/><rect id="year_2019" data-name="year 2019" class="cls-11" x="499.16" y="269.99" width="67.73" height="23.89"/><text class="cls-12" transform="translate(112.13 286.67)">2015</text><text class="cls-12" transform="translate(218.13 287.68)">2016</text><text class="cls-12" transform="translate(311.35 286.92)">2017</text><text class="cls-12" transform="translate(411.67 286.92)">2018</text><text class="cls-12" transform="translate(516.11 287.92)">2019</text><text class="cls-13" transform="translate(112.54 483.76)">Recycled materials percentage in last 5 years</text><rect id="plastic_bar" data-name="plastic bar" class="cls-14" x="105.22" y="509.64" width="349.59" height="27.87"/><text class="cls-15" transform="translate(222.28 530.55)">PLASTIC</text><rect id="glass_bar" data-name="glass bar" class="cls-16" x="104.43" y="547.42" width="284.75" height="27.87"/><text class="cls-15" transform="translate(222.28 568.37)">GLASS</text><rect id="paper_bar" data-name="paper bar" class="cls-17" x="105.22" y="583.61" width="259" height="27.87"/><text class="cls-15" transform="translate(223.99 604.2)">PAPER</text><rect id="metal_bar" data-name="metal bar" class="cls-18" x="105.22" y="621.12" width="237.54" height="27.87"/><text class="cls-15" transform="translate(223.99 642.03)">METAL</text><rect id="base_bar" data-name="base bar" class="cls-11" x="101.98" y="503.29" width="3.24" height="150.7"/><text class="cls-5" transform="translate(468.5 530.62)">60- 70%</text><text class="cls-5" transform="translate(409.81 570.4)">40-50%</text><text class="cls-5" transform="translate(380.9 605.26)">30-40%</text><text class="cls-5" transform="translate(360.64 644.05)">15-20%</text><g id="REUSE"><path class="cls-19" d="M148.31,711.11q-.31.32-.69.63a6.3,6.3,0,0,1-4.5,1.67l-5.44,0,5.44,0a6.3,6.3,0,0,0,4.5-1.67q.38-.32.69-.63L139,725.84a4.55,4.55,0,0,1-1,1.09,4.8,4.8,0,0,1-3.06,1.07l-7.82-.11L127,734l-7.68-13.35L127,706.32l-.17,7,10.82.08-8.46-14.71,13.56-7.82,6.88,12a7.1,7.1,0,0,1,.57,1.76,6.79,6.79,0,0,1-1.13,5.37,5.77,5.77,0,0,1-.73,1Zm-43.62-37.72a6.81,6.81,0,0,1,5.19-1.8l1.21.21,17.56.19,1.48.33a4.63,4.63,0,0,1,2.47,2l4,6.76,5.25-3-7.45,13.47-16.24.79,6.07-3.45-5.48-9.31-8.27,14.88-13.72-7.55,6.74-12.14A7.88,7.88,0,0,1,104.69,673.39Zm-6.21,39.44H115.4l0,15.67H102.28a6.71,6.71,0,0,1-2.55-.44,6.82,6.82,0,0,1-4.06-3.64,6.42,6.42,0,0,1-.5-1.15,9.35,9.35,0,0,1-.25-1,6.41,6.41,0,0,1,.79-4.71l2.77-4.75-2.77,4.75a6.41,6.41,0,0,0-.79,4.71,9.35,9.35,0,0,0,.25,1l-8.24-15.5a5.1,5.1,0,0,1,.18-4.61l4-6.73-5.23-3.12H101.3l8.54,13.81-6-3.62Zm12.61-41,1,.17a6.44,6.44,0,0,1,3.7,3l2.93,4.6L115.8,675a6.44,6.44,0,0,0-3.7-3Z" transform="translate(36.06 29.85)"/><path class="cls-20" d="M137.68,713.37l-8.45-14.71,13.56-7.82,6.88,12a7.1,7.1,0,0,1,.57,1.76,6.79,6.79,0,0,1-1.13,5.37,5.77,5.77,0,0,1-.73,1l-.07.08L139,725.84a4.55,4.55,0,0,1-1,1.09,4.78,4.78,0,0,1-3.06,1.07l-7.82-.11L127,734l-7.68-13.35L127,706.32l-.17,7Zm10.63-2.26q-.31.32-.69.63a6.3,6.3,0,0,1-4.5,1.67l-5.44,0m-33-40a6.81,6.81,0,0,1,5.19-1.8l1.21.21,17.56.19,1.48.33a4.63,4.63,0,0,1,2.47,2l4,6.76,5.25-3-7.45,13.47-16.24.79,6.07-3.45-5.48-9.31-8.27,14.88-13.72-7.55,6.74-12.14A7.88,7.88,0,0,1,104.69,673.39Zm-6.21,39.44,5.39-9.33,6,3.62-8.54-13.81H85.88l5.23,3.11-4,6.74a4.64,4.64,0,0,0-.6,3.16,4.54,4.54,0,0,0,.42,1.44l8.24,15.51a9.35,9.35,0,0,1-.25-1,6.41,6.41,0,0,1,.79-4.71l2.77-4.75H115.4l0,15.67H102.28a6.71,6.71,0,0,1-2.55-.44,6.82,6.82,0,0,1-4.06-3.64,6.42,6.42,0,0,1-.5-1.15m15.92-51.47,1,.17a6.44,6.44,0,0,1,3.7,3l2.93,4.6" transform="translate(36.06 29.85)"/></g><text class="cls-5" transform="translate(128.76 792.98) rotate(-1.29)">REUSE </text><g id="REDUCE"><path class="cls-21" d="M308.9,711.34q-.31.31-.69.63a6.42,6.42,0,0,1-4.5,1.67l-5.44,0,5.44,0a6.42,6.42,0,0,0,4.5-1.67q.38-.32.69-.63l-9.29,14.73a5,5,0,0,1-1.05,1.09,4.74,4.74,0,0,1-3.05,1.06l-7.83-.1-.1,6.07-7.68-13.35,7.72-14.29-.17,7,10.82.09-8.46-14.71,13.56-7.83,6.89,12a7.66,7.66,0,0,1,.56,1.76,6.82,6.82,0,0,1-1.13,5.38,5.26,5.26,0,0,1-.73,1A.24.24,0,0,0,308.9,711.34Zm-43.63-37.73a6.84,6.84,0,0,1,5.19-1.79l1.21.2,17.56.19,1.48.34a4.59,4.59,0,0,1,2.47,2.05l4,6.76,5.25-3.06L295,691.78l-16.23.79,6.06-3.45-5.48-9.31-8.26,14.87-13.73-7.55L264.06,675A8,8,0,0,1,265.27,673.61Zm-6.21,39.44H276l0,15.67H262.87a6.52,6.52,0,0,1-2.56-.43,6.86,6.86,0,0,1-4.06-3.65,5.85,5.85,0,0,1-.5-1.15,8.23,8.23,0,0,1-.25-1,6.43,6.43,0,0,1,.8-4.71l2.76-4.75-2.76,4.75a6.43,6.43,0,0,0-.8,4.71,8.23,8.23,0,0,0,.25,1L247.51,708a4.54,4.54,0,0,1-.42-1.44,4.65,4.65,0,0,1,.61-3.16l4-6.74-5.23-3.12h15.42l8.54,13.81-6-3.62Zm12.61-41,1,.17a6.49,6.49,0,0,1,3.7,3l2.93,4.61-2.93-4.61a6.49,6.49,0,0,0-3.7-3Z" transform="translate(36.06 29.85)"/><path class="cls-22" d="M298.27,713.6l-8.46-14.71,13.56-7.83,6.89,12a7.66,7.66,0,0,1,.56,1.76,6.81,6.81,0,0,1-1.13,5.38,5.26,5.26,0,0,1-.73,1,.24.24,0,0,0-.06.09l-9.29,14.73a5,5,0,0,1-1.05,1.09,4.74,4.74,0,0,1-3.05,1.06l-7.83-.1-.1,6.07-7.68-13.35,7.72-14.29-.17,7Zm10.63-2.26q-.31.31-.69.63a6.42,6.42,0,0,1-4.5,1.67l-5.44,0m-33-40a6.84,6.84,0,0,1,5.19-1.79l1.21.2,17.56.19,1.48.34a4.59,4.59,0,0,1,2.47,2.05l4,6.76,5.25-3.06L295,691.78l-16.23.79,6.06-3.45-5.48-9.31-8.26,14.87-13.73-7.55L264.06,675A8,8,0,0,1,265.27,673.61Zm-6.21,39.44,5.4-9.33,6,3.62-8.54-13.81H246.46l5.23,3.12-4,6.74a4.65,4.65,0,0,0-.61,3.16,4.54,4.54,0,0,0,.42,1.44l8.24,15.5a8.23,8.23,0,0,1-.25-1,6.43,6.43,0,0,1,.8-4.71l2.76-4.75H276l0,15.67H262.87a6.52,6.52,0,0,1-2.56-.43,6.86,6.86,0,0,1-4.06-3.65,5.85,5.85,0,0,1-.5-1.15M271.67,672l1,.17a6.49,6.49,0,0,1,3.7,3l2.93,4.61" transform="translate(36.06 29.85)"/></g><text class="cls-5" transform="translate(284.23 792.98)">REDUCE</text><g id="recycle_logo-7" data-name="recycle logo"><path class="cls-2" d="M487.35,711.11q-.32.32-.69.63a6.3,6.3,0,0,1-4.5,1.67l-5.44,0,5.44,0a6.3,6.3,0,0,0,4.5-1.67q.38-.32.69-.63l-9.29,14.73a4.55,4.55,0,0,1-1,1.09A4.8,4.8,0,0,1,474,728l-7.82-.11L466,734l-7.68-13.35,7.72-14.29-.16,7,10.81.08-8.45-14.71,13.56-7.82,6.88,12a7.1,7.1,0,0,1,.57,1.76,6.79,6.79,0,0,1-1.13,5.37,5.77,5.77,0,0,1-.73,1Zm-43.62-37.72a6.81,6.81,0,0,1,5.19-1.8l1.21.21,17.56.19,1.48.33a4.63,4.63,0,0,1,2.47,2l4,6.76,5.25-3-7.45,13.47-16.24.79,6.07-3.45-5.48-9.31-8.27,14.88-13.72-7.55,6.74-12.14A7.88,7.88,0,0,1,443.73,673.39Zm-6.21,39.44h16.92l0,15.67H441.32a6.68,6.68,0,0,1-2.55-.44,6.82,6.82,0,0,1-4.06-3.64,6.42,6.42,0,0,1-.5-1.15,9.35,9.35,0,0,1-.25-1,6.41,6.41,0,0,1,.79-4.71l2.77-4.75-2.77,4.75a6.41,6.41,0,0,0-.79,4.71,9.35,9.35,0,0,0,.25,1L426,707.77a5.1,5.1,0,0,1,.18-4.61l4-6.73-5.23-3.12h15.42l8.54,13.81-6-3.62Zm12.61-41,1,.17a6.44,6.44,0,0,1,3.7,3l2.93,4.6-2.93-4.6a6.44,6.44,0,0,0-3.7-3Z" transform="translate(36.06 29.85)"/><path class="cls-3" d="M476.72,713.37l-8.45-14.71,13.56-7.82,6.88,12a7.1,7.1,0,0,1,.57,1.76,6.83,6.83,0,0,1-1.13,5.37,5.77,5.77,0,0,1-.73,1l-.07.08-9.29,14.73a4.55,4.55,0,0,1-1,1.09A4.8,4.8,0,0,1,474,728l-7.82-.11L466,734l-7.68-13.35,7.72-14.29-.16,7Zm10.63-2.26q-.32.32-.69.63a6.3,6.3,0,0,1-4.5,1.67l-5.44,0m-33-40a6.81,6.81,0,0,1,5.19-1.8l1.21.21,17.56.19,1.48.33a4.63,4.63,0,0,1,2.47,2l4,6.76,5.25-3-7.45,13.47-16.24.79,6.07-3.45-5.48-9.31-8.27,14.88-13.72-7.55,6.74-12.14A7.88,7.88,0,0,1,443.73,673.39Zm-6.21,39.44,5.39-9.33,6,3.62-8.54-13.81H424.92l5.23,3.11-4,6.74a4.64,4.64,0,0,0-.6,3.16,4.54,4.54,0,0,0,.42,1.44l8.24,15.51a9.35,9.35,0,0,1-.25-1,6.41,6.41,0,0,1,.79-4.71l2.77-4.75h16.92l0,15.67H441.32a6.68,6.68,0,0,1-2.55-.44,6.82,6.82,0,0,1-4.06-3.64,6.42,6.42,0,0,1-.5-1.15m15.92-51.47,1,.17a6.44,6.44,0,0,1,3.7,3l2.93,4.6" transform="translate(36.06 29.85)"/></g><text class="cls-5" transform="translate(454.81 792.98)">RECYCLE</text></svg>