<svg id="Layer_1" data-name="Layer 1" xmlns="http://www.w3.org/2000/svg" viewBox="0 0 109.1 140.19"><defs><style>.cls-1{fill:#009345;stroke:#231f20;stroke-miterlimit:10;stroke-width:0.5px;}.cls-2,.cls-3{fill:#fff;}.cls-2{fill-rule:evenodd;}.cls-3{stroke:#000;stroke-miterlimit:6;stroke-width:0.25px;}</style></defs><title>recycle_bin</title><g id="recyclebin_4" data-name="recyclebin 4"><g id="recycling_bin_4" data-name="recycling bin 4"><path id="BIN" class="cls-1" d="M33.21,37.75l95.43,1.37v6h5.76V57.22H120.69l-2.74,85s-45,29.62-77.06-2.46l-.55-84.2-14.54.28V41.31L33.21,41Z" transform="translate(-25.55 -14.75)"/><path id="BIN_LID" data-name="BIN LID" class="cls-1" d="M34.58,28.7,121,29.8V15.26S64.47,12,34.58,28.7Z" transform="translate(-25.55 -14.75)"/></g><g id="recycle_logo" data-name="recycle logo"><path class="cls-2" d="M108.83,111.14q-.3.3-.66.6a6,6,0,0,1-4.28,1.59l-5.18,0,5.18,0a6,6,0,0,0,4.28-1.59q.36-.3.66-.6l-8.84,14a4.94,4.94,0,0,1-3.91,2l-7.44-.1-.1,5.77-7.31-12.7,7.35-13.6-.16,6.63,10.29.08-8-14,12.9-7.45,6.55,11.45a6.87,6.87,0,0,1-.53,6.79,5.78,5.78,0,0,1-.7,1A.16.16,0,0,0,108.83,111.14ZM67.31,75.23a6.51,6.51,0,0,1,4.94-1.71l1.15.2,16.71.18,1.41.32a4.35,4.35,0,0,1,2.35,2l3.79,6.43,5-2.91L95.57,92.52l-15.46.75L85.89,90l-5.22-8.86L72.8,95.29,59.74,88.1l6.41-11.55A7.63,7.63,0,0,1,67.31,75.23Zm-5.92,37.54H77.5l0,14.92H65a6.22,6.22,0,0,1-2.43-.42,6.47,6.47,0,0,1-3.87-3.47,5.5,5.5,0,0,1-.47-1.09,6.45,6.45,0,0,1-.24-.94,6.12,6.12,0,0,1,.75-4.48l2.63-4.52-2.63,4.52a6.12,6.12,0,0,0-.75,4.48,6.45,6.45,0,0,0,.24.94L50.4,108a4.8,4.8,0,0,1,.18-4.38l3.8-6.41-5-3H64.08l8.13,13.14-5.68-3.44Zm12-39,1,.16a6.13,6.13,0,0,1,3.52,2.87l2.79,4.38-2.79-4.38a6.13,6.13,0,0,0-3.52-2.87Z" transform="translate(-25.55 -14.75)"/><path class="cls-3" d="M98.71,113.29l-8-14,12.9-7.45,6.55,11.45a6.87,6.87,0,0,1-.53,6.79,5.78,5.78,0,0,1-.7,1,.21.21,0,0,0-.06.08l-8.84,14a4.94,4.94,0,0,1-3.91,2l-7.44-.1-.1,5.78-7.31-12.71,7.35-13.6-.16,6.63Zm10.12-2.15q-.3.3-.66.6a6,6,0,0,1-4.28,1.59l-5.18,0M67.31,75.23a6.51,6.51,0,0,1,4.94-1.71l1.15.2,16.71.18,1.41.32a4.35,4.35,0,0,1,2.35,2l3.79,6.43,5-2.91L95.57,92.52l-15.46.75L85.89,90l-5.22-8.86L72.8,95.29,59.74,88.1l6.41-11.55A7.63,7.63,0,0,1,67.31,75.23Zm-5.92,37.54,5.14-8.88,5.68,3.44L64.08,94.19H49.4l5,3-3.8,6.41A4.8,4.8,0,0,0,50.4,108l7.85,14.76a6.45,6.45,0,0,1-.24-.94,6.12,6.12,0,0,1,.75-4.48l2.63-4.52H77.5l0,14.92H65a6.22,6.22,0,0,1-2.43-.42,6.47,6.47,0,0,1-3.87-3.47,5.5,5.5,0,0,1-.47-1.09m15.15-49,1,.16a6.13,6.13,0,0,1,3.52,2.87l2.79,4.38" transform="translate(-25.55 -14.75)"/></g></g></svg>