<svg id="Layer_1" data-name="Layer 1" xmlns="http://www.w3.org/2000/svg" viewBox="0 0 107.12 103.63"><defs><style>.cls-1,.cls-2{fill:#00a551;}.cls-1{fill-rule:evenodd;}.cls-2{stroke:#000;stroke-miterlimit:6;stroke-width:0.25px;}</style></defs><title>recycle logo</title><g id="recycle_logo" data-name="recycle logo"><path class="cls-1" d="M126.36,107.31c-.34.35-.73.69-1.14,1a10.49,10.49,0,0,1-7.43,2.76l-9-.07,9,.07a10.49,10.49,0,0,0,7.43-2.76c.41-.35.8-.69,1.14-1L111,131.64a7.79,7.79,0,0,1-1.73,1.8,7.91,7.91,0,0,1-5.05,1.76L91.32,135l-.18,10L78.46,123,91.21,99.4l-.27,11.51,17.87.13-14-24.29,22.4-12.93L128.61,93.7a11.81,11.81,0,0,1,.93,2.9,11.27,11.27,0,0,1-1.87,8.88,9.46,9.46,0,0,1-1.2,1.69A.6.6,0,0,0,126.36,107.31ZM54.3,45a11.29,11.29,0,0,1,8.57-3l2,.34,29,.32,2.46.55a7.65,7.65,0,0,1,4.08,3.39L107,57.79l8.68-5L103.34,75,76.52,76.31l10-5.7L77.49,55.23,63.84,79.8,41.17,67.33l11.13-20A13.51,13.51,0,0,1,54.3,45ZM44,110.15H72L72,136H50.33a10.89,10.89,0,0,1-4.22-.72,11.22,11.22,0,0,1-6.7-6,9.53,9.53,0,0,1-.83-1.9q-.24-.77-.42-1.62A10.63,10.63,0,0,1,39.48,118L44,110.15,39.48,118a10.63,10.63,0,0,0-1.32,7.78q.18.86.42,1.62L25,101.78a8,8,0,0,1-.69-2.38,7.75,7.75,0,0,1,1-5.22l6.6-11.13L23.23,77.9H48.71l14.1,22.81-9.85-6ZM64.88,42.37l1.66.28a10.75,10.75,0,0,1,6.12,5l4.83,7.6-4.83-7.6a10.75,10.75,0,0,0-6.12-5Z" transform="translate(-22.78 -41.88)"/><path class="cls-2" d="M108.8,111l-14-24.29,22.4-12.93L128.61,93.7a12.25,12.25,0,0,1,.93,2.9,11.26,11.26,0,0,1-1.87,8.88,9.06,9.06,0,0,1-1.21,1.69.94.94,0,0,0-.1.14L111,131.64a7.79,7.79,0,0,1-1.73,1.8,7.89,7.89,0,0,1-5.05,1.76L91.32,135l-.17,10L78.46,123,91.21,99.4l-.27,11.51Zm17.56-3.73c-.34.35-.73.69-1.14,1a10.49,10.49,0,0,1-7.43,2.76l-9-.07M54.3,45a11.29,11.29,0,0,1,8.57-3l2,.34,29,.32,2.46.55a7.65,7.65,0,0,1,4.08,3.39L107,57.79l8.68-5L103.34,75,76.52,76.31l10-5.7L77.49,55.23,63.84,79.8,41.17,67.33l11.13-20A13.51,13.51,0,0,1,54.3,45ZM44,110.15,53,94.73l9.85,6L48.71,77.9H23.23l8.64,5.15-6.6,11.13a7.7,7.7,0,0,0-1,5.22,8,8,0,0,0,.69,2.38l13.62,25.61q-.24-.77-.42-1.62A10.63,10.63,0,0,1,39.48,118L44,110.15H72L72,136H50.33a10.89,10.89,0,0,1-4.22-.72,11.22,11.22,0,0,1-6.7-6,9.53,9.53,0,0,1-.83-1.9m26.3-85,1.66.28a10.75,10.75,0,0,1,6.12,5l4.83,7.6" transform="translate(-22.78 -41.88)"/></g></svg>